<svg width="200" height="200" viewBox="0 0 200 200" fill="none" xmlns="http://www.w3.org/2000/svg">
  <rect width="200" height="200" rx="40" fill="url(#paint0_linear)" />
  <path d="M60 100C60 77.909 77.909 60 100 60C122.091 60 140 77.909 140 100C140 122.091 122.091 140 100 140C77.909 140 60 122.091 60 100Z" fill="white" />
  <path d="M100 70C83.4315 70 70 83.4315 70 100C70 116.569 83.4315 130 100 130C116.569 130 130 116.569 130 100C130 83.4315 116.569 70 100 70ZM100 120C86.7452 120 76 109.255 76 96C76 82.7452 86.7452 72 100 72C113.255 72 124 82.7452 124 96C124 109.255 113.255 120 100 120Z" fill="url(#paint1_linear)" />
  <path d="M100 80C90.0589 80 82 88.0589 82 98C82 107.941 90.0589 116 100 116C109.941 116 118 107.941 118 98C118 88.0589 109.941 80 100 80ZM100 106C93.3726 106 88 100.627 88 94C88 87.3726 93.3726 82 100 82C106.627 82 112 87.3726 112 94C112 100.627 106.627 106 100 106Z" fill="url(#paint2_linear)" />
  <path d="M100 90C98.3431 90 97 91.3431 97 93C97 94.6569 98.3431 96 100 96C101.657 96 103 94.6569 103 93C103 91.3431 101.657 90 100 90Z" fill="white" />
  <defs>
    <linearGradient id="paint0_linear" x1="0" y1="0" x2="200" y2="200" gradientUnits="userSpaceOnUse">
      <stop stop-color="#7C3AED" />
      <stop offset="1" stop-color="#3B82F6" />
    </linearGradient>
    <linearGradient id="paint1_linear" x1="60" y1="60" x2="140" y2="140" gradientUnits="userSpaceOnUse">
      <stop stop-color="#7C3AED" />
      <stop offset="1" stop-color="#3B82F6" />
    </linearGradient>
    <linearGradient id="paint2_linear" x1="82" y1="82" x2="118" y2="118" gradientUnits="userSpaceOnUse">
      <stop stop-color="#7C3AED" />
      <stop offset="1" stop-color="#3B82F6" />
    </linearGradient>
  </defs>
</svg> 